<mxfile host="app.diagrams.net" modified="2024-05-30T09:04:09.722Z" agent="Mozilla/5.0 (Windows NT 10.0; Win64; x64) AppleWebKit/537.36 (KHTML, like Gecko) Chrome/124.0.0.0 Safari/537.36 OPR/110.0.0.0" version="24.4.4" etag="GpWO6pUC03YnFsjJxqJ9" type="github">
  <diagram name="Page-1" id="2UU_CkVrKFLNBcxkkD2k">
    <mxGraphModel>
      <root>
        <mxCell id="0" />
        <mxCell id="1" parent="0" />
      </root>
    </mxGraphModel>
  </diagram>
</mxfile>
